<svg width="100" height="19" viewBox="0 0 100 19" fill="none" xmlns="http://www.w3.org/2000/svg">
<path d="M8.22898 8.93637C8.22898 7.29802 6.96391 6.14293 5.42173 6.14293C3.8675 6.14293 2.61448 7.3216 2.61448 8.93637C2.61448 10.5394 3.87955 11.7298 5.42173 11.7298C6.96391 11.7416 8.22898 10.5865 8.22898 8.93637ZM8.25308 13.8279V12.5549C7.48199 13.4389 6.34945 13.9811 4.98799 13.9811C2.15664 13.9811 0 11.8359 0 8.93637C0 6.06042 2.22893 3.87988 5.04823 3.87988C6.37354 3.87988 7.49403 4.42207 8.25308 5.2825V4.05668H10.7953V13.8279H8.25308Z" fill="black"/>
<path d="M23.1513 11.659C22.2597 11.659 22.0188 11.3407 22.0188 10.5275V6.18996H23.6573V4.05657H22.0188V1.67566H19.4163V4.05657H16.0549V3.46724C16.0549 2.64217 16.3802 2.33571 17.2958 2.33571H17.8621V0.42627H16.6091C14.4524 0.42627 13.4404 1.08632 13.4404 3.12542V4.05657H11.9946V6.18996H13.4404V13.8277H16.0428V6.18996H19.4043V10.9754C19.4043 12.9673 20.2115 13.8277 22.32 13.8277H23.6694V11.659H23.1513Z" fill="black"/>
<path d="M32.503 8.06416C32.3223 6.7912 31.2259 6.03685 29.9367 6.03685C28.6596 6.03685 27.5993 6.77941 27.3343 8.06416H32.503ZM27.3102 9.58464C27.503 11.0344 28.5873 11.8477 29.9849 11.8477C31.0813 11.8477 31.9247 11.3526 32.4307 10.5747H35.1054C34.4789 12.6492 32.515 13.9811 29.9367 13.9811C26.8162 13.9811 24.6234 11.9066 24.6234 8.95995C24.6234 6.01327 26.9367 3.87988 29.9969 3.87988C33.0813 3.87988 35.3102 6.02506 35.3102 8.95995C35.3102 9.17211 35.2861 9.38427 35.25 9.58464H27.3102Z" fill="black"/>
<path d="M51.8835 8.93637C51.8835 7.35696 50.6184 6.14293 49.0763 6.14293C47.522 6.14293 46.269 7.3216 46.269 8.93637C46.269 10.5394 47.5341 11.7298 49.0763 11.7298C50.6184 11.7416 51.8835 10.5276 51.8835 8.93637ZM43.6907 4.05668H46.2329V5.32965C47.004 4.43386 48.1365 3.87988 49.4979 3.87988C52.2931 3.87988 54.4859 6.04863 54.4859 8.92459C54.4859 11.8005 52.257 13.9929 49.4377 13.9929C48.1365 13.9929 47.0642 13.4978 46.3172 12.6845V17.8589H43.6907V4.05668Z" fill="black"/>
<path d="M63.6523 8.93637C63.6523 7.29802 62.3872 6.14293 60.8451 6.14293C59.2908 6.14293 58.0378 7.3216 58.0378 8.93637C58.0378 10.5394 59.3029 11.7298 60.8451 11.7298C62.3872 11.7416 63.6523 10.5865 63.6523 8.93637ZM63.6764 13.8279V12.5549C62.9053 13.4389 61.7728 13.9811 60.4113 13.9811C57.58 13.9811 55.4233 11.8359 55.4233 8.93637C55.4233 6.06042 57.6523 3.87988 60.4716 3.87988C61.7969 3.87988 62.9174 4.42207 63.6764 5.2825V4.05668H66.2186V13.8279H63.6764Z" fill="black"/>
<path d="M39.0959 5.0114C39.0959 5.0114 39.7465 3.87988 41.3248 3.87988C41.9995 3.87988 42.4453 4.10383 42.4453 4.10383V6.60261C42.4453 6.60261 41.4935 6.04863 40.6139 6.15471C39.7344 6.27258 39.1802 7.02693 39.1802 8.05237V13.8396H36.5537V4.05668H39.0959V5.0114Z" fill="black"/>
<path d="M78.0999 4.05664L71.6782 17.8235H68.9673L71.4854 12.5077L67.2203 4.06843H70.2926L72.7866 9.71425L75.3409 4.06843H78.0999V4.05664Z" fill="black"/>
<path d="M98.6028 3.8328L92.2292 0.355729C90.3617 -0.657927 88.0244 0.615036 88.0244 2.65413V3.00773C88.0244 3.32597 88.2051 3.63243 88.5063 3.78566L89.7111 4.44571C90.0605 4.6343 90.5063 4.39856 90.5063 4.0096V3.1256C90.5063 2.67771 91.0124 2.40661 91.422 2.63056L96.9401 5.63617C97.3497 5.86011 97.3497 6.41409 96.9401 6.62625L91.422 9.63185C91.0124 9.8558 90.5063 9.57292 90.5063 9.13681V8.66535C90.5063 6.62625 88.169 5.35329 86.3015 6.36694L79.94 9.84402C78.0725 10.8577 78.0725 13.4154 79.94 14.429L86.3015 17.9061C88.169 18.9198 90.5063 17.6468 90.5063 15.6077V15.2541C90.5063 14.9359 90.3256 14.6412 90.0244 14.4762L88.8196 13.8161C88.4702 13.6275 88.0244 13.8633 88.0244 14.2522V15.1362C88.0244 15.5841 87.5184 15.8552 87.1087 15.6313L81.5906 12.6257C81.181 12.4017 81.181 11.8478 81.5906 11.6238L87.1087 8.62998C87.5184 8.40604 88.0244 8.68892 88.0244 9.12503V9.59649C88.0244 11.6356 90.3617 12.9086 92.2292 11.8949L98.5907 8.41783C100.47 7.40417 100.47 4.85824 98.6028 3.8328Z" fill="black"/>
</svg>
