<svg width="106" height="18" viewBox="0 0 106 18" fill="none" xmlns="http://www.w3.org/2000/svg">
<path d="M9 14.737L13.3649 17.3458C14.1642 17.824 15.1424 17.1172 14.932 16.2233L13.7751 11.3174L17.6351 8.01216C18.3398 7.40932 17.9611 6.26599 17.0356 6.19324L11.9555 5.76709L9.96763 1.13143C9.61003 0.289524 8.38997 0.289524 8.03237 1.13143L6.04451 5.75669L0.964434 6.18284C0.038871 6.2556 -0.339768 7.39892 0.364921 8.00177L4.22494 11.307L3.06799 16.2129C2.85763 17.1068 3.83578 17.8136 4.63513 17.3355L9 14.737Z" fill="#FEC400"/>
<path d="M31 14.737L35.3649 17.3458C36.1642 17.824 37.1424 17.1172 36.932 16.2233L35.7751 11.3174L39.6351 8.01216C40.3398 7.40932 39.9611 6.26599 39.0356 6.19324L33.9555 5.76709L31.9676 1.13143C31.61 0.289524 30.39 0.289524 30.0324 1.13143L28.0445 5.75669L22.9644 6.18284C22.0389 6.2556 21.6602 7.39892 22.3649 8.00177L26.2249 11.307L25.068 16.2129C24.8576 17.1068 25.8358 17.8136 26.6351 17.3355L31 14.737Z" fill="#FEC400"/>
<path d="M53 14.737L57.3649 17.3458C58.1642 17.824 59.1424 17.1172 58.932 16.2233L57.7751 11.3174L61.6351 8.01216C62.3398 7.40932 61.9611 6.26599 61.0356 6.19324L55.9555 5.76709L53.9676 1.13143C53.61 0.289524 52.39 0.289524 52.0324 1.13143L50.0445 5.75669L44.9644 6.18284C44.0389 6.2556 43.6602 7.39892 44.3649 8.00177L48.2249 11.307L47.068 16.2129C46.8576 17.1068 47.8358 17.8136 48.6351 17.3355L53 14.737Z" fill="#FEC400"/>
<path d="M75 14.737L79.3649 17.3458C80.1642 17.824 81.1424 17.1172 80.932 16.2233L79.7751 11.3174L83.6351 8.01216C84.3398 7.40932 83.9611 6.26599 83.0356 6.19324L77.9555 5.76709L75.9676 1.13143C75.61 0.289524 74.39 0.289524 74.0324 1.13143L72.0445 5.75669L66.9644 6.18284C66.0389 6.2556 65.6602 7.39892 66.3649 8.00177L70.2249 11.307L69.068 16.2129C68.8576 17.1068 69.8358 17.8136 70.6351 17.3355L75 14.737Z" fill="#FEC400"/>
<path d="M97 14.737L101.365 17.3458C102.164 17.824 103.142 17.1172 102.932 16.2233L101.775 11.3174L105.635 8.01216C106.34 7.40932 105.961 6.26599 105.036 6.19324L99.9555 5.76709L97.9676 1.13143C97.61 0.289524 96.39 0.289524 96.0324 1.13143L94.0445 5.75669L88.9644 6.18284C88.0389 6.2556 87.6602 7.39892 88.3649 8.00177L92.2249 11.307L91.068 16.2129C90.8576 17.1068 91.8358 17.8136 92.6351 17.3355L97 14.737Z" fill="#FEC400"/>
</svg>
